<svg xmlns="http://www.w3.org/2000/svg" version="1.1" xmlns:xlink="http://www.w3.org/1999/xlink" width="64" height="64" x="0" y="0" viewBox="0 0 32 32" style="enable-background:new 0 0 512 512" xml:space="preserve" class=""><g><path d="m20.34 13.938-4.2-1.522-12.3 4.474V27.5h10.5V16.9l-1.046-.381a.251.251 0 0 1-.149-.32l.34-.94a.254.254 0 0 1 .129-.142.26.26 0 0 1 .192-.008l6.534 2.378zM6.515 26.564H4.44v-2.075h2.075zm0-2.446H4.44v-2.076h2.075zm2.447 2.446H6.887v-2.075h2.075zm0-2.446H6.887v-2.076h2.075zM28.34 7h-7.5v20.5h7.5zm-4.015 17.982h-2.637v-5.3h2.637zm0-5.842h-2.637v-5.3h2.637zm0-5.843h-2.637V8h2.637zm3.166 11.685h-2.636v-5.3h2.636zm0-5.842h-2.636v-5.3h2.636zm0-5.843h-2.636V8h2.636z" fill="#b98e75" opacity="1" data-original="#000000" class=""></path><path d="M20.34 27.5v-8.415l-5.5-2.007V27.5h.5v-3.75a.25.25 0 0 1 .25-.25h2a.25.25 0 0 1 .25.25v3.75z" fill="#b98e75" opacity="1" data-original="#000000" class=""></path><path d="M15.84 24h1.5v3.5h-1.5zM20.34 18.015l-6.47-2.354-.17.469.97.354.006.001 5.664 2.068zM16.14 10.83a.25.25 0 0 1 .085.015l.681.248 3.344 1.217V3.5h-5.5v7.819l1.3-.474a.25.25 0 0 1 .09-.015zM14.25 11.502V8.5h-5.5v5.003l2.72-.988z" fill="#b98e75" opacity="1" data-original="#000000" class=""></path><path d="M16.055 11.915a.248.248 0 0 1 .17 0l4.115 1.491v-.528l-1.2-.438-3-1.094-.159.058-1.39.509h-.006l-3.12 1.134-8.735 3.182.17.471zM28.59 28H2.84v.5h26.5V28z" fill="#b98e75" opacity="1" data-original="#000000" class=""></path></g></svg>