<svg xmlns="http://www.w3.org/2000/svg" version="1.1" xmlns:xlink="http://www.w3.org/1999/xlink" width="512" height="512" x="0" y="0" viewBox="0 0 512.069 512.069" style="enable-background:new 0 0 512 512" xml:space="preserve" class=""><g><path d="M293.419 504.536h211.15v-30.123a7.877 7.877 0 0 0-7.877-7.877H195.446a7.877 7.877 0 0 0-7.877 7.877v30.123h76.85M218.152 405.448v61.088h255.834V270.533M473.986 241.533V54.125H218.152v297.983" style="stroke-width:15;stroke-linecap:round;stroke-linejoin:round;stroke-miterlimit:10;" fill="none" stroke="#000000" stroke-width="15" stroke-linecap="round" stroke-linejoin="round" stroke-miterlimit="10" data-original="#000000" class=""></path><path d="M250.599 54.125h190.94v253.56h-190.94z" style="stroke-width:15;stroke-linecap:round;stroke-linejoin:round;stroke-miterlimit:10;" transform="rotate(-180 346.07 180.904)" fill="none" stroke="#000000" stroke-width="15" stroke-linecap="round" stroke-linejoin="round" stroke-miterlimit="10" data-original="#000000" class=""></path><path d="M264.549 424.961 12.307 302.206a8.425 8.425 0 0 1-4.738-7.575v-29.084c0-6.223 6.515-10.298 12.11-7.575L265.69 377.695" style="stroke-width:15;stroke-linecap:round;stroke-linejoin:round;stroke-miterlimit:10;" fill="none" stroke="#000000" stroke-width="15" stroke-linecap="round" stroke-linejoin="round" stroke-miterlimit="10" data-original="#000000" class=""></path><path d="M266.452 361.849h60.771v104.687h-60.771z" style="stroke-width:15;stroke-linecap:round;stroke-linejoin:round;stroke-miterlimit:10;" transform="rotate(-180 296.838 414.193)" fill="none" stroke="#000000" stroke-width="15" stroke-linecap="round" stroke-linejoin="round" stroke-miterlimit="10" data-original="#000000" class=""></path><path d="m62.493 326.629 38.312 18.645v-47.821l-38.312-18.645zM156.546 372.401l38.312 18.645v-47.821l-38.312-18.645zM395.249 350.023h35.423M395.249 387.11h35.423M395.249 424.198h35.423M36.099 66.379c7.294-39.112 44.913-64.906 84.025-57.613s64.906 44.913 57.613 84.025c-7.294 39.112-44.913 64.906-84.025 57.613M106.918 7.546v18.083M178.958 79.585h-18.083M157.858 28.646l-6.943 6.943M157.858 130.525l-6.943-6.943M55.979 28.646l6.943 6.943" style="stroke-width:15;stroke-linecap:round;stroke-linejoin:round;stroke-miterlimit:10;" fill="none" stroke="#000000" stroke-width="15" stroke-linecap="round" stroke-linejoin="round" stroke-miterlimit="10" data-original="#000000" class=""></path><path d="M106.918 49.872v29.713h15.487M77.996 128.733H47.678S63.73 96.637 66.379 93.052c2.678-3.625 5.215-1.364 5.457 1.834.242 3.198-.121 49.566-.121 49.566M34.022 146.142s-23.49.326-24.603-.084c-1.113-.409 1.784-2.57 17.185-26.844 2.876-4.533 4.459-8.358 5.133-11.562 1.083-9.349-5.238-15.688-12.115-15.688-6.004 0-11.007 4.724-12.122 10.986M18.343 51.311 35.008 72.23l23.085-13.506M371.947 7.533H209.805v46.592h272.529V7.533h-81.387" style="stroke-width:15;stroke-linecap:round;stroke-linejoin:round;stroke-miterlimit:10;" fill="none" stroke="#000000" stroke-width="15" stroke-linecap="round" stroke-linejoin="round" stroke-miterlimit="10" data-original="#000000" class=""></path></g></svg>