<svg xmlns="http://www.w3.org/2000/svg" version="1.1" xmlns:xlink="http://www.w3.org/1999/xlink" width="512" height="512" x="0" y="0" viewBox="0 0 48 48" style="enable-background:new 0 0 512 512" xml:space="preserve" class=""><g><path d="M5 44h38a1 1 0 0 0 1-1V19a1 1 0 0 0-1-1h-5V9a1 1 0 0 0-1-1h-5V7a3 3 0 0 0-3-3H19a3 3 0 0 0-3 3v1h-5a1 1 0 0 0-1 1v9H5a1 1 0 0 0-1 1v24a1 1 0 0 0 1 1zm33-24h4v22h-4zM27 42h-6v-7h6zM18 7a1 1 0 0 1 1-1h10a1 1 0 0 1 1 1v10a1 1 0 0 1-1 1H19a1 1 0 0 1-1-1zm-6 3h4v7a3 3 0 0 0 3 3h10a3 3 0 0 0 3-3v-7h4v32h-7v-8a1 1 0 0 0-1-1h-8a1 1 0 0 0-1 1v8h-7zM6 20h4v22H6z" fill="#38787a" opacity="1" data-original="#000000" class=""></path><path d="M21 13h2v2a1 1 0 0 0 2 0v-2h2a1 1 0 0 0 0-2h-2V9a1 1 0 1 0-2 0v2h-2a1 1 0 0 0 0 2zM17 25h2a1 1 0 0 0 0-2h-2a1 1 0 0 0 0 2zM20 29a1 1 0 0 0-1-1h-2a1 1 0 0 0 0 2h2a1 1 0 0 0 1-1zM23 25h2a1 1 0 0 0 0-2h-2a1 1 0 0 0 0 2zM23 30h2a1 1 0 0 0 0-2h-2a1 1 0 0 0 0 2zM29 25h2a1 1 0 0 0 0-2h-2a1 1 0 0 0 0 2zM29 30h2a1 1 0 0 0 0-2h-2a1 1 0 0 0 0 2z" fill="#38787a" opacity="1" data-original="#000000" class=""></path></g></svg>