<svg xmlns="http://www.w3.org/2000/svg" version="1.1" xmlns:xlink="http://www.w3.org/1999/xlink" width="512" height="512" x="0" y="0" viewBox="0 0 43.349 43.349" style="enable-background:new 0 0 512 512" xml:space="preserve" fill-rule="evenodd" class=""><g><path d="M11.936 19.545a.472.472 0 0 1-.213-.896c5.565-2.792 14.496-2.791 19.907.002a.474.474 0 0 1-.434.84c-5.175-2.67-13.72-2.669-19.048.004a.466.466 0 0 1-.212.05zM11.936 26.287a.472.472 0 0 1-.213-.896c5.565-2.792 14.496-2.791 19.907.002a.474.474 0 0 1-.434.84c-5.175-2.67-13.72-2.669-19.048.004a.468.468 0 0 1-.212.05zM11.936 33.029a.472.472 0 0 1-.213-.896c5.565-2.792 14.496-2.791 19.907.002a.474.474 0 0 1-.434.84c-5.175-2.67-13.72-2.669-19.048.004a.481.481 0 0 1-.212.05z" fill="#38787a" opacity="1" data-original="#000000" class=""></path><path d="M16.805 31.446a.473.473 0 0 1-.473-.474l.001-10.123.001-10.122a.473.473 0 1 1 .946 0V20.85c-.002 1.958-.002 3.917-.002 10.122a.473.473 0 0 1-.473.474zM21.674 30.99a.473.473 0 0 1-.473-.474V10.291a.473.473 0 0 1 .946 0v20.225a.473.473 0 0 1-.473.473zM26.544 31.425a.473.473 0 0 1-.473-.473V20.839c0-1.955.002-3.911.002-10.112a.473.473 0 1 1 .946 0v10.112c-.002 1.955-.002 3.911-.002 10.113a.473.473 0 0 1-.473.473zM16.805 43.35a.473.473 0 0 1-.473-.474v-8.08c0-.262.212-.474.473-.474h4.87a.473.473 0 0 1 0 .947h-4.397v7.607a.473.473 0 0 1-.473.473z" fill="#38787a" opacity="1" data-original="#000000" class=""></path><path d="M26.544 43.35a.473.473 0 0 1-.473-.474V35.27h-3.924v7.607a.473.473 0 0 1-.946 0v-8.08c0-.262.212-.474.473-.474h4.87c.261 0 .473.212.473.473v8.081a.473.473 0 0 1-.473.473z" fill="#38787a" opacity="1" data-original="#000000" class=""></path><path d="M12.41 42.403h18.53V2.808c-5.113-2.5-13.278-2.5-18.53.003zm19.003.946H11.936a.473.473 0 0 1-.473-.473V2.516c0-.18.1-.343.26-.423 5.565-2.792 14.496-2.79 19.907.002.158.081.256.244.256.421v40.36a.473.473 0 0 1-.473.473z" fill="#38787a" opacity="1" data-original="#000000" class=""></path><path d="M11.936 12.803a.472.472 0 0 1-.213-.896c5.565-2.792 14.496-2.79 19.907.002a.474.474 0 0 1-.434.842c-5.175-2.672-13.72-2.67-19.048.002a.469.469 0 0 1-.212.05zM24.668 8.776h-5.49a.473.473 0 0 1-.457-.351l-1.338-4.991-1.335-.771a.472.472 0 1 1 .473-.82l1.505.87c.11.062.188.166.22.286l1.295 4.83h5.127a.473.473 0 0 1 0 .947z" fill="#38787a" opacity="1" data-original="#000000" class=""></path><path d="M24.668 7.535h-5.772a.473.473 0 0 1 0-.947h5.408l.597-2.225h-6.856a.472.472 0 1 1 0-.946h7.473a.472.472 0 0 1 .456.597l-.85 3.17a.473.473 0 0 1-.456.35zM20.61 9.356a.473.473 0 0 1-.474-.473v-.58a.473.473 0 0 1 .947 0v.58a.473.473 0 0 1-.473.473zM23.236 9.356a.473.473 0 0 1-.474-.473v-.58a.473.473 0 0 1 .947 0v.58a.473.473 0 0 1-.473.473zM11.936 43.35H1.265a.473.473 0 0 1-.473-.474V16.434c0-.262.212-.473.473-.473h10.671a.473.473 0 1 1 0 .945H1.738v25.497h10.198a.473.473 0 0 1 0 .946z" fill="#38787a" opacity="1" data-original="#000000" class=""></path><path d="M6.6 43.35a.473.473 0 0 1-.473-.474V16.434a.473.473 0 1 1 .946 0v26.442a.473.473 0 0 1-.473.473z" fill="#38787a" opacity="1" data-original="#000000" class=""></path><path d="M11.936 23.74H1.265a.473.473 0 0 1 0-.947h10.671a.473.473 0 0 1 0 .947zM11.936 30.128H1.265a.473.473 0 0 1 0-.947h10.671a.473.473 0 0 1 0 .947zM11.936 36.517H1.265a.473.473 0 0 1 0-.947h10.671a.473.473 0 0 1 0 .947zM42.084 43.35H31.413a.473.473 0 0 1 0-.947H41.61V16.906H31.413a.473.473 0 1 1 0-.945h10.671c.261 0 .473.21.473.473v26.442a.473.473 0 0 1-.473.473z" fill="#38787a" opacity="1" data-original="#000000" class=""></path><path d="M36.748 43.35a.473.473 0 0 1-.473-.474V16.434a.473.473 0 1 1 .946 0v26.442a.473.473 0 0 1-.473.473z" fill="#38787a" opacity="1" data-original="#000000" class=""></path><path d="M42.084 23.74H31.413a.473.473 0 0 1 0-.947h10.671a.473.473 0 0 1 0 .947zM31.413 30.128a.473.473 0 1 1 0-.947h10.671a.473.473 0 0 1 0 .947zM42.084 36.517H31.413a.473.473 0 0 1 0-.947h10.671a.473.473 0 0 1 0 .947z" fill="#38787a" opacity="1" data-original="#000000" class=""></path></g></svg>