<svg xmlns="http://www.w3.org/2000/svg" version="1.1" xmlns:xlink="http://www.w3.org/1999/xlink" width="150" height="150" x="0" y="0" viewBox="0 0 43.349 43.349" style="enable-background:new 0 0 512 512" xml:space="preserve" fill-rule="evenodd" class=""><g><path d="M2.428 42.337h38.493V17.914H2.428v24.423zm38.967.946H1.955a.474.474 0 0 1-.473-.473V17.44c0-.261.212-.473.473-.473h39.44c.262 0 .472.212.472.473V42.81a.473.473 0 0 1-.472.473z" fill="#38787a" opacity="1" data-original="#38787a" class=""></path><path d="M37.963 17.914a.473.473 0 0 1-.473-.473V1.013H5.86V17.44a.474.474 0 0 1-.946 0V.54c0-.262.212-.473.473-.473h32.576c.262 0 .473.211.473.473v16.902a.473.473 0 0 1-.473.473z" fill="#38787a" opacity="1" data-original="#38787a" class=""></path><path d="M33.865 10.73h-1.924a.474.474 0 0 1 0-.946h1.451V8.197h-1.451a.474.474 0 0 1 0-.947h1.924c.261 0 .473.212.473.473v2.534a.473.473 0 0 1-.473.473zM25.98 8.197h-8.61a.473.473 0 0 1 0-.947h8.61a.473.473 0 1 1 0 .947zm0 2.533h-8.61a.473.473 0 0 1 0-.946h8.61a.473.473 0 1 1 0 .946zM11.41 10.73H9.484a.474.474 0 0 1-.473-.473V7.723c0-.26.212-.473.473-.473h1.926a.473.473 0 0 1 0 .947H9.957v1.587h1.453a.473.473 0 0 1 0 .946zM14.39 15.56c-.81 0-1.467-.657-1.467-1.467V3.886a1.468 1.468 0 0 1 2.933 0 .473.473 0 0 1-.947 0 .52.52 0 1 0-1.04 0v10.207c0 .287.234.52.52.52s.52-.233.52-.52a.474.474 0 0 1 .947 0c0 .81-.658 1.467-1.466 1.467z" fill="#38787a" opacity="1" data-original="#38787a" class=""></path><path d="M16.376 3.367a.52.52 0 0 0-.52.52v10.206a.521.521 0 0 0 1.04 0V3.886a.52.52 0 0 0-.52-.52zm0 12.193a1.469 1.469 0 0 1-1.467-1.467V3.886a1.467 1.467 0 0 1 2.933 0v10.207c0 .81-.657 1.467-1.466 1.467zM12.376 14.303a1.44 1.44 0 0 1-1.44-1.438v-7.75c0-.82.643-1.439 1.495-1.439a1.44 1.44 0 0 1 1.438 1.44.473.473 0 0 1-.946 0 .493.493 0 0 0-.492-.493c-.264 0-.548.155-.548.493v7.749c0 .27.22.493.493.493.263 0 .547-.155.547-.493a.473.473 0 0 1 .946 0c0 .82-.642 1.438-1.493 1.438zM28.96 15.56a1.468 1.468 0 0 1-1.466-1.467.473.473 0 1 1 .947 0 .52.52 0 0 0 1.04 0V3.886a.52.52 0 0 0-1.04 0 .473.473 0 1 1-.947 0c0-.808.658-1.466 1.466-1.466.809 0 1.467.658 1.467 1.466v10.207c0 .81-.658 1.467-1.467 1.467z" fill="#38787a" opacity="1" data-original="#38787a" class=""></path><path d="M26.974 3.367a.52.52 0 0 0-.52.52v10.206a.521.521 0 0 0 1.04 0V3.886a.52.52 0 0 0-.52-.52zm0 12.193a1.469 1.469 0 0 1-1.467-1.467V3.886c0-.808.658-1.466 1.467-1.466.808 0 1.467.658 1.467 1.466v10.207c0 .81-.659 1.467-1.467 1.467zM30.975 14.36c-.852 0-1.494-.619-1.494-1.44a.473.473 0 0 1 .946 0c0 .34.284.494.547.494.273 0 .493-.22.493-.493V5.059c0-.339-.284-.492-.548-.492a.493.493 0 0 0-.492.491.473.473 0 1 1-.946 0 1.44 1.44 0 0 1 1.438-1.438c.852 0 1.495.618 1.495 1.438v7.863c0 .794-.646 1.44-1.44 1.44zM31.305 43.283a.473.473 0 0 1-.474-.473v-12.4a.472.472 0 1 1 .947 0v12.4a.474.474 0 0 1-.473.473zm-19.26 0h-.005a.474.474 0 0 1-.468-.479l.164-12.404a.473.473 0 0 1 .473-.468h.006c.261.004.47.22.467.48l-.163 12.404a.474.474 0 0 1-.473.467zM21.675 43.283a.474.474 0 0 1-.474-.473v-12.4a.473.473 0 1 1 .947 0v12.4a.473.473 0 0 1-.473.473zM19.36 37.995a.473.473 0 0 1-.472-.473v-1.217a.473.473 0 0 1 .946 0v1.217a.474.474 0 0 1-.473.473zM23.99 37.995a.473.473 0 0 1-.474-.473v-1.217a.473.473 0 1 1 .947 0v1.217a.473.473 0 0 1-.474.473zM1.955 17.914H.473A.474.474 0 0 1 0 17.441v-5.293c0-.261.212-.473.473-.473h4.914a.473.473 0 0 1 0 .946H.947v4.347h1.008a.473.473 0 0 1 0 .946zm40.92 0h-1.48a.474.474 0 0 1 0-.946h1.008v-4.347h-4.44a.473.473 0 1 1 0-.946h4.913c.263 0 .473.212.473.473v5.293a.473.473 0 0 1-.473.473zM5.526 24.605h4.082v-4.083H5.526zm4.555.946H5.053a.473.473 0 0 1-.474-.473v-5.03c0-.26.211-.472.474-.472h5.028c.261 0 .473.212.473.473v5.029a.473.473 0 0 1-.473.473zM14.931 24.605h4.082v-4.083h-4.082zm4.555.946h-5.028a.473.473 0 0 1-.473-.473v-5.03c0-.26.212-.472.473-.472h5.028c.261 0 .473.212.473.473v5.029a.474.474 0 0 1-.473.473zM24.337 24.605h4.082v-4.083h-4.082zm4.556.946h-5.03a.473.473 0 0 1-.473-.473v-5.03c0-.26.212-.472.473-.472h5.03c.26 0 .472.212.472.473v5.029a.473.473 0 0 1-.473.473zM33.743 24.605h4.082v-4.083h-4.082zm4.554.946H33.27a.473.473 0 0 1-.474-.473v-5.03c0-.26.212-.472.473-.472h5.029c.26 0 .473.212.473.473v5.029a.473.473 0 0 1-.473.473z" fill="#38787a" opacity="1" data-original="#38787a" class=""></path><path d="M10.546 29.936h22.258V28.16H10.546zm22.732.947H10.073a.474.474 0 0 1-.473-.473v-2.724c0-.262.211-.474.473-.474h23.205c.26 0 .473.212.473.474v2.724a.474.474 0 0 1-.473.473z" fill="#38787a" opacity="1" data-original="#38787a" class=""></path></g></svg>