<svg xmlns="http://www.w3.org/2000/svg" version="1.1" xmlns:xlink="http://www.w3.org/1999/xlink" width="150" height="150" x="0" y="0" viewBox="0 0 496 496" style="enable-background:new 0 0 512 512" xml:space="preserve" class=""><g><path d="M471.512 406.246c.328-2.14.488-4.2.488-6.246 0-26.473-21.527-48-48-48-6.2 0-12.105 1.215-17.543 3.367-5.723-7.703-13.547-13.383-22.457-16.527v-88.742C395.742 263.465 412.855 272 432 272c35.29 0 64-28.71 64-64a63.855 63.855 0 0 0-27.496-52.55A55.995 55.995 0 0 0 472 136c0-23.055-14.36-43.617-35.23-52A63.223 63.223 0 0 0 440 64c0-35.29-28.71-64-64-64s-64 28.71-64 64c0 6.855 1.09 13.55 3.23 20-20.87 8.383-35.23 28.945-35.23 52a55.995 55.995 0 0 0 3.496 19.45A63.855 63.855 0 0 0 256 208c0 35.29 28.71 64 64 64 19.145 0 36.258-8.535 48-21.902V336c-15.742 0-29.695 7.648-38.45 19.39-5.566-2.183-11.503-3.39-17.55-3.39-16.312 0-31.246 8.465-40 21.727V336h32v-48h-32v-19.313l-32-32-32 32V288h-16v-19.313l-32-32-16 16V184h24c30.871 0 56-25.129 56-56v-8h-40c-15.664 0-29.824 6.48-40 16.887V104h24c30.871 0 56-25.129 56-56v-8h-40c-5.64 0-11.168.879-16.52 2.543L136 3.191l-31.48 39.352C99.168 40.879 93.64 40 88 40H48v8c0 30.871 25.129 56 56 56h24v72.887C117.824 166.48 103.664 160 88 160H48v8c0 30.871 25.129 56 56 56h24v64h-16v-19.313l-32-32-32 32V288H16v48h32v48H16v48h32v48H32v16h416c26.473 0 48-21.527 48-48 0-17.602-9.414-33.344-24.488-41.754zM320 256c-26.473 0-48-21.527-48-48 0-17.742 9.742-33.977 25.426-42.352l7.062-3.77-3.777-7.062C297.586 148.976 296 142.641 296 136c0-18.762 13.305-35.207 31.64-39.113l10.137-2.16-4.648-9.254C329.727 78.695 328 71.48 328 64c0-26.473 21.527-48 48-48s48 21.527 48 48c0 7.48-1.727 14.695-5.129 21.48l-4.648 9.254 10.136 2.16C442.695 100.794 456 117.239 456 136c0 6.64-1.586 12.977-4.71 18.824l-3.778 7.063 7.062 3.77C470.258 174.022 480 190.256 480 208c0 26.473-21.527 48-48 48-20.129 0-37.367-12.457-44.488-30.055l37.062-24.707 27.84 13.922 7.16-14.312-36.16-18.078-39.367 26.246c-.008-.344-.047-.672-.047-1.016v-44.152l9.184-7.352 17.16 17.16 11.312-11.312-15.894-15.895L421 134.258l-10-12.496-27 21.59v-35.07l20.441-13.626-8.875-13.312L384 89.054V67.72l-27.559-18.375-8.875 13.312L368 76.281v99.07l-26.031-20.824-15.313-22.968-13.312 8.875 12.36 18.543-19.36 19.359 11.312 11.312 19.16-19.16L368 195.816V208c0 26.473-21.527 48-48 48zM184 136h23.191c-3.718 18.23-19.87 32-39.191 32h-23.191c3.71-18.23 19.87-32 39.191-32zm23.191-80c-3.64 17.863-19.238 31.352-38.039 31.895C173.442 81.793 176 74.398 176 66.39c0-3.118-.52-6.192-1.281-9.192C177.754 56.465 180.848 56 184 56zm-90.449-3.113L136 28.809l19.266 24.086A21.657 21.657 0 0 1 160 66.39C160 78.305 150.305 88 138.39 88h-4.78C121.694 88 112 78.305 112 66.39c0-4.886 1.68-9.687 4.742-13.503zM64.81 56H88c3.152 0 6.246.465 9.29 1.2-.77 3-1.29 6.073-1.29 9.19 0 8.008 2.559 15.403 6.84 21.505C84.047 87.352 68.45 73.863 64.809 56zM104 208c-19.32 0-35.48-13.77-39.191-32H88c19.32 0 35.48 13.77 39.191 32zm184 96v16h-16v-16zm-48-44.688 16 16v93.407c-2.61-.438-5.273-.719-8-.719-8.664 0-16.871 2.367-24 6.496v-99.183zM208 389.68c-2.168 3.273-3.91 6.824-5.23 10.625-3.739.406-7.336 1.28-10.77 2.504V336h16zm0-85.68v16h-16v-16zm-32-28.688V412.32c-9.793 8.793-16 21.504-16 35.68 0 12.305 4.688 23.496 12.32 32H144V275.312l16-16zM128 384h-16v-48h16zm0 16v16h-16v-16zm0 32v48h-16v-48zm0-128v16h-16v-16zm-96 16v-16h16v16zm0 96v-16h16v16zm32-140.688 16-16 16 16V480H64zM448 480H208c-17.648 0-32-14.352-32-32s14.352-32 32-32 32 14.352 32 32h16c0-22.457-15.52-41.313-36.39-46.52C224.976 391.031 235.8 384 248 384c17.648 0 32 14.352 32 32h16c0-12.105-4.535-23.137-11.953-31.594C289.633 374.434 300.336 368 312 368c3.488 0 6.91.633 10.168 1.719A47.94 47.94 0 0 0 320 384h16c0-17.648 14.352-32 32-32 9.719 0 18.664 4.398 24.664 11.719C382.48 372.527 376 385.512 376 400h16c0-17.648 14.352-32 32-32s32 14.352 32 32c0 2.559-.434 5.305-1.352 8.617l-1.953 6.992 6.778 2.614C471.945 423.039 480 434.727 480 448c0 17.648-14.352 32-32 32zM0 480h16v16H0zm0 0" fill="#38787a" opacity="1" data-original="#38787a" class=""></path><path d="M440 288h-40v8c0 22.055 17.945 40 40 40h40v-8c0-22.055-17.945-40-40-40zm0 32c-10.434 0-19.328-6.688-22.633-16H440c10.434 0 19.328 6.688 22.633 16zm0 0" fill="#38787a" opacity="1" data-original="#38787a" class=""></path></g></svg>