<svg xmlns="http://www.w3.org/2000/svg" version="1.1" xmlns:xlink="http://www.w3.org/1999/xlink" width="150" height="150" x="0" y="0" viewBox="0 0 512 512" style="enable-background:new 0 0 512 512" xml:space="preserve"><g><path d="M9 256a7 7 0 0 1 7-7h34.207a7 7 0 1 1 0 14H16a7 7 0 0 1-7-7zm7-195.758h216.826a7 7 0 1 0 0-14H16a7 7 0 1 0 0 14zm0 304.137h93.646a7 7 0 1 0 0-14H16a7 7 0 1 0 0 14zm0-202.758h93.646a7 7 0 1 0 0-14H16a7 7 0 1 0 0 14zm216.826 290.137H16a7 7 0 1 0 0 14h216.826a7 7 0 1 0 0-14zM420.226 256c0 70.019-56.965 126.983-126.983 126.983S166.259 326.019 166.259 256s56.965-126.983 126.983-126.983S420.226 185.981 420.226 256zm-14.224 7h-45.405c-.621 21.071-4.028 40.574-9.583 57.337 10.016 2.411 19.442 5.446 28.026 9.09 15.515-18.104 25.41-41.155 26.962-66.427zm-198.557 66.427c8.584-3.644 18.01-6.679 28.025-9.089-5.556-16.763-8.963-36.267-9.584-57.338h-45.404c1.553 25.272 11.447 48.324 26.963 66.427zM180.482 249h45.404c.603-20.479 3.841-39.472 9.123-55.913-10.212-2.483-19.803-5.62-28.514-9.392-14.969 17.93-24.492 40.552-26.013 65.305zm105.76-100.885c-12.51 3.504-23.805 16.221-32.126 34.568 10.27 1.665 21.05 2.674 32.126 2.972zm-37.312 47.887c-5.14 15.478-8.393 33.642-9.03 52.998h46.342v-49.338c-12.875-.33-25.417-1.573-37.312-3.66zM239.9 263c.658 19.966 4.1 38.662 9.523 54.451 11.756-2.038 24.132-3.252 36.819-3.579V263zm14.874 67.75c8.254 17.577 19.286 29.723 31.468 33.135v-36.006c-10.83.293-21.389 1.267-31.468 2.871zm45.468 33.135c12.182-3.412 23.214-15.558 31.468-33.136-10.078-1.603-20.637-2.577-31.468-2.87zm36.819-46.435c5.423-15.789 8.865-34.485 9.523-54.45h-46.341v50.872c12.686.327 25.062 1.541 36.818 3.578zm9.522-68.45c-.637-19.356-3.891-37.52-9.03-52.998-11.895 2.087-24.436 3.329-37.311 3.66V249zm-14.216-66.317c-8.321-18.347-19.615-31.064-32.125-34.568v37.54c11.076-.299 21.856-1.308 32.125-2.972zm14.199-2.8c8.17-1.915 15.906-4.271 23.055-7.06-12.421-11.415-27.396-20.088-43.958-25.058 8.163 7.982 15.266 18.936 20.903 32.118zm-85.745-32.118c-16.562 4.97-31.537 13.643-43.958 25.058 7.149 2.789 14.884 5.146 23.054 7.06 5.638-13.182 12.74-24.136 20.904-32.118zm-42.765 192.491c12.182 10.883 26.729 19.167 42.765 23.979-7.873-7.698-14.755-18.163-20.292-30.721-7.944 1.833-15.479 4.085-22.473 6.742zm107.607 23.979c16.036-4.812 30.583-13.097 42.766-23.98-6.993-2.656-14.529-4.908-22.473-6.743-5.537 12.559-12.421 23.025-20.293 30.723zM406.002 249c-1.521-24.753-11.044-47.375-26.014-65.305-8.71 3.772-18.302 6.909-28.515 9.393 5.282 16.44 8.52 35.434 9.123 55.912zm66.602 41.002c-6.782 36.095-24.087 68.862-50.292 95.067s-58.971 43.51-95.067 50.292c-1.909 17.075-16.426 30.396-34.002 30.396s-32.094-13.321-34.002-30.396c-36.096-6.781-68.862-24.088-95.068-50.292-26.204-26.205-43.51-58.971-50.292-95.067-17.077-1.908-30.398-16.425-30.398-34.002s13.321-32.094 30.396-34.002c6.782-36.096 24.088-68.863 50.292-95.068 26.205-26.205 58.972-43.51 95.068-50.292 1.909-17.075 16.426-30.395 34.002-30.395s32.093 13.32 34.002 30.395c36.096 6.782 68.862 24.088 95.067 50.292 26.205 26.206 43.51 58.972 50.292 95.068C489.679 223.906 503 238.423 503 256s-13.321 32.094-30.396 34.002zM273.021 80.464c0 11.15 9.071 20.222 20.222 20.222s20.222-9.071 20.222-20.222-9.071-20.222-20.222-20.222-20.222 9.071-20.222 20.222zM117.705 276.222c11.15 0 20.222-9.071 20.222-20.222s-9.071-20.222-20.222-20.222S97.483 244.85 97.483 256s9.072 20.222 20.222 20.222zm195.759 155.314c0-11.15-9.071-20.222-20.222-20.222s-20.222 9.071-20.222 20.222 9.071 20.222 20.222 20.222 20.222-9.071 20.222-20.222zM458.61 288.68c-13.921-4.34-24.054-17.349-24.054-32.68s10.133-28.339 24.054-32.68c-13.163-67.328-65.361-119.526-132.688-132.689-4.34 13.921-17.349 24.054-32.68 24.054s-28.34-10.134-32.68-24.054c-67.328 13.163-119.526 65.361-132.689 132.689 13.92 4.34 24.054 17.349 24.054 32.68s-10.133 28.339-24.053 32.68c13.164 67.328 65.362 119.526 132.689 132.688 4.34-13.92 17.349-24.053 32.68-24.053s28.339 10.133 32.68 24.053c67.327-13.163 119.524-65.361 132.687-132.688zM489 256c0-11.15-9.071-20.222-20.222-20.222S448.557 244.85 448.557 256s9.071 20.222 20.222 20.222S489 267.15 489 256z" fill="#38787a" opacity="1" data-original="#38787a"></path></g></svg>