<svg xmlns="http://www.w3.org/2000/svg" version="1.1" xmlns:xlink="http://www.w3.org/1999/xlink" width="150" height="150" x="0" y="0" viewBox="0 0 12.7 12.7" style="enable-background:new 0 0 512 512" xml:space="preserve" class=""><g><path d="M.53 8.064a.265.265 0 0 0-.263.265v3.89a.265.265 0 0 0 .263.263h11.114a.265.265 0 0 0 .263-.264V8.33a.265.265 0 0 0-.263-.265zm.266.53h10.582v3.36H.796z" fill="#38787a" opacity="1" data-original="#38787a"></path><path d="M5.823 4.189a.265.265 0 0 0-.265.264v3.61H1.325V6.018a.265.265 0 0 0-.265-.264.265.265 0 0 0-.264.264v2.312a.265.265 0 0 0 .264.264h4.763a.265.265 0 0 0 .264-.264V4.453a.265.265 0 0 0-.264-.264z" fill="#38787a" opacity="1" data-original="#38787a"></path><path d="M6.335 2.865c-1.948.35-3.902.708-5.852 1.062a.265.265 0 0 0-.216.262v1.057c-.001.165.149.291.312.261L6.4 4.45a.265.265 0 0 0 .217-.26V3.13a.265.265 0 0 0-.281-.265zm-.248.582v.52l-5.291.962v-.52zM7.41 6.04a.265.265 0 0 0-.264.264V8.33a.265.265 0 0 0 .263.264h3.705a.265.265 0 0 0 .264-.264V6.361a.265.265 0 0 0-.264-.264.265.265 0 0 0-.263.264v1.703H7.675v-1.76a.265.265 0 0 0-.266-.264z" fill="#38787a" opacity="1" data-original="#38787a"></path><path d="M11.753 3.984c-1.64.327-3.285.668-4.926 1.004a.265.265 0 0 0-.21.258v1.058c-.001.168.153.294.318.26l4.888-.998a.265.265 0 0 0 .211-.26V4.247a.265.265 0 0 0-.281-.263zm-.248.588v.517l-4.36.893v-.52zM1.589 9.48a.265.265 0 0 0-.264.264v2.382a.265.265 0 0 0 .264.264h3.44a.265.265 0 0 0 .265-.264v-1.554a.265.265 0 0 0-.266-.266.265.265 0 0 0-.263.266v1.289h-2.91v-1.852h3.173a.265.265 0 0 0 .266-.265.265.265 0 0 0-.266-.264zM7.146 9.48a.265.265 0 0 0-.264.264v2.382a.265.265 0 0 0 .264.264h3.439a.265.265 0 0 0 .266-.264v-1.47a.265.265 0 0 0-.266-.266.265.265 0 0 0-.264.266v1.205H7.41v-1.852h3.176a.265.265 0 0 0 .266-.265.265.265 0 0 0-.266-.264zM2.384 6.04a.265.265 0 0 0-.266.264v2.008a.265.265 0 0 0 .266.266h1.851a.265.265 0 0 0 .264-.266V6.304a.265.265 0 0 0-.264-.264zm.264.53H3.97v1.478H2.648zM8.337 6.554a.265.265 0 0 0-.266.266v1.492a.265.265 0 0 0 .266.266h1.852a.265.265 0 0 0 .263-.266V6.82a.265.265 0 0 0-.263-.266zm.264.53h1.322v.964H8.6zM11.286.218c-.955 0-1.734.78-1.734 1.735a1.738 1.738 0 0 0 2.775 1.388.265.265 0 0 0 0-.424 1.206 1.206 0 0 1 0-1.927.265.265 0 0 0 0-.424 1.736 1.736 0 0 0-1.04-.348zm0 .53c.196 0 .395.033.543.181-.249.306-.514.62-.514 1.024 0 .403.265.719.514 1.025-.143.143-.347.18-.543.18a1.2 1.2 0 0 1-1.205-1.205A1.2 1.2 0 0 1 11.286.747z" fill="#38787a" opacity="1" data-original="#38787a"></path></g></svg>